<svg width="22" height="17" viewBox="0 0 22 17" fill="none" xmlns="http://www.w3.org/2000/svg">
<path d="M20.0906 0H1.33938C0.984151 0 0.643475 0.141112 0.392294 0.392294C0.141112 0.643475 0 0.984151 0 1.33938V14.7331C0 15.0883 0.141112 15.429 0.392294 15.6802C0.643475 15.9314 0.984151 16.0725 1.33938 16.0725H20.0906C20.4459 16.0725 20.7865 15.9314 21.0377 15.6802C21.2889 15.429 21.43 15.0883 21.43 14.7331V1.33938C21.43 0.984151 21.2889 0.643475 21.0377 0.392294C20.7865 0.141112 20.4459 0 20.0906 0ZM19.0593 14.7331H2.45106L7.13887 9.88459L6.17452 8.95372L1.33938 13.9563V2.3573L9.66359 10.6413C9.91454 10.8908 10.254 11.0308 10.6079 11.0308C10.9617 11.0308 11.3012 10.8908 11.5521 10.6413L20.0906 2.1497V13.8692L15.1617 8.94033L14.2175 9.88459L19.0593 14.7331ZM2.21667 1.33938H19.0057L10.6079 9.69038L2.21667 1.33938Z" fill="black" fill-opacity="0.48"/>
</svg>
