<svg width="27" height="27" viewBox="0 0 27 27" fill="none" xmlns="http://www.w3.org/2000/svg">
<path d="M13.5001 0C6.04515 0 0 6.0441 0 13.5001C0 19.4648 3.86817 24.5253 9.23221 26.3103C9.90689 26.4353 10.1546 26.0175 10.1546 25.6609C10.1546 25.339 10.142 24.2755 10.1363 23.1475C6.38054 23.9641 5.58805 21.5546 5.58805 21.5546C4.97391 19.9942 4.08902 19.5792 4.08902 19.5792C2.86421 18.7414 4.18141 18.7587 4.18141 18.7587C5.537 18.8538 6.25082 20.1498 6.25082 20.1498C7.45495 22.2136 9.40908 21.617 10.1794 21.272C10.3006 20.3996 10.6504 19.8039 11.0366 19.4668C8.03798 19.1255 4.88584 17.9679 4.88584 12.795C4.88584 11.3211 5.41318 10.1168 6.27676 9.17135C6.13659 8.83132 5.67454 7.45833 6.40754 5.5987C6.40754 5.5987 7.54123 5.23589 10.1211 6.98256C11.1979 6.68345 12.3528 6.53347 13.5001 6.5283C14.6474 6.53347 15.8032 6.68334 16.8821 6.98256C19.4588 5.236 20.5909 5.59881 20.5909 5.59881C21.3257 7.45822 20.8634 8.83143 20.7232 9.17135C21.5888 10.1168 22.1126 11.3211 22.1126 12.795C22.1126 17.9802 18.9544 19.1219 15.9482 19.4561C16.4325 19.8751 16.8639 20.6967 16.8639 21.9562C16.8639 23.7624 16.8483 25.2162 16.8483 25.6609C16.8483 26.0202 17.0913 26.4411 17.7756 26.3084C23.1367 24.5215 27 19.4629 27 13.5002C27 6.0441 20.9557 0 13.5001 0ZM5.05628 19.2312C5.02654 19.2982 4.92096 19.3184 4.82488 19.2723C4.7269 19.2283 4.67195 19.1369 4.70359 19.0696C4.7327 19.0005 4.83848 18.9812 4.93615 19.0275C5.03423 19.0716 5.09013 19.1639 5.05628 19.2312ZM5.72031 19.8237C5.65597 19.8834 5.53004 19.8557 5.44461 19.7614C5.35634 19.6673 5.33978 19.5414 5.40506 19.4808C5.47151 19.4211 5.59354 19.4491 5.68202 19.5431C5.77041 19.6384 5.78749 19.7634 5.72031 19.8237ZM6.17593 20.5818C6.09314 20.6393 5.95793 20.5854 5.87429 20.4654C5.79161 20.3453 5.79161 20.2014 5.87609 20.1437C5.95993 20.086 6.09314 20.1379 6.17783 20.2571C6.26031 20.3791 6.26031 20.5231 6.17583 20.5819L6.17593 20.5818ZM6.94628 21.4598C6.87234 21.5415 6.71467 21.5195 6.59929 21.4082C6.48127 21.2993 6.44846 21.1449 6.52271 21.0633C6.5976 20.9814 6.75612 21.0044 6.87234 21.1149C6.98941 21.2236 7.02527 21.3791 6.94628 21.4598ZM7.94211 21.7562C7.90942 21.862 7.75754 21.9101 7.60472 21.8651C7.452 21.8188 7.35212 21.695 7.38292 21.5882C7.41466 21.4817 7.56717 21.4317 7.72116 21.4798C7.87366 21.5258 7.97386 21.6487 7.94211 21.7563V21.7562ZM9.07527 21.882C9.07907 21.9933 8.94945 22.0856 8.78892 22.0877C8.62755 22.0913 8.49688 22.0012 8.49509 21.8915C8.49509 21.7792 8.62186 21.6878 8.78333 21.685C8.94386 21.6818 9.07527 21.7713 9.07527 21.882V21.882ZM10.1885 21.8393C10.2077 21.9479 10.0962 22.0595 9.93674 22.0893C9.78012 22.1179 9.63499 22.0508 9.61506 21.9431C9.59565 21.8317 9.70924 21.7201 9.86565 21.6913C10.0253 21.6636 10.1681 21.7289 10.1885 21.8393Z" fill="#FFA500"/>
</svg>
