<svg width="22" height="25" viewBox="0 0 22 25" fill="none" xmlns="http://www.w3.org/2000/svg">
<path d="M17.8571 8.33333H20.2381C20.5538 8.33333 20.8566 8.45876 21.0799 8.68202C21.3031 8.90527 21.4286 9.20808 21.4286 9.52381V23.8095C21.4286 24.1253 21.3031 24.4281 21.0799 24.6513C20.8566 24.8746 20.5538 25 20.2381 25H1.19048C0.874742 25 0.57194 24.8746 0.348682 24.6513C0.125425 24.4281 0 24.1253 0 23.8095V9.52381C0 9.20808 0.125425 8.90527 0.348682 8.68202C0.57194 8.45876 0.874742 8.33333 1.19048 8.33333H3.57143V7.14286C3.57143 5.24845 4.32398 3.43164 5.66352 2.09209C7.00307 0.752549 8.81988 0 10.7143 0C12.6087 0 14.4255 0.752549 15.765 2.09209C17.1046 3.43164 17.8571 5.24845 17.8571 7.14286V8.33333ZM15.4762 8.33333V7.14286C15.4762 5.87992 14.9745 4.66871 14.0815 3.77568C13.1884 2.88265 11.9772 2.38095 10.7143 2.38095C9.45135 2.38095 8.24014 2.88265 7.34711 3.77568C6.45408 4.66871 5.95238 5.87992 5.95238 7.14286V8.33333H15.4762ZM9.52381 15.4762V17.8571H11.9048V15.4762H9.52381ZM4.7619 15.4762V17.8571H7.14286V15.4762H4.7619ZM14.2857 15.4762V17.8571H16.6667V15.4762H14.2857Z" fill="black" fill-opacity="0.48"/>
</svg>
