<svg width="28" height="25" viewBox="0 0 28 25" fill="none" xmlns="http://www.w3.org/2000/svg">
<path fill-rule="evenodd" clip-rule="evenodd" d="M26.25 0C25.7859 0 25.3408 0.184374 25.0126 0.512563C24.6844 0.840752 24.5 1.28587 24.5 1.75V22.75C24.5 23.2141 24.6844 23.6593 25.0126 23.9874C25.3408 24.3156 25.7859 24.5 26.25 24.5C26.7141 24.5 27.1592 24.3156 27.4874 23.9874C27.8156 23.6593 28 23.2141 28 22.75V1.75C28 1.28587 27.8156 0.840752 27.4874 0.512563C27.1592 0.184374 26.7141 0 26.25 0ZM12.7628 5.76275C12.4347 6.09092 12.2504 6.53596 12.2504 7C12.2504 7.46404 12.4347 7.90908 12.7628 8.23725L15.0255 10.5H1.75C1.28587 10.5 0.84075 10.6844 0.512562 11.0126C0.184374 11.3408 0 11.7859 0 12.25C0 12.7141 0.184374 13.1592 0.512562 13.4874C0.84075 13.8156 1.28587 14 1.75 14H15.0255L12.7628 16.2628C12.444 16.5928 12.2676 17.0349 12.2716 17.4937C12.2756 17.9525 12.4596 18.3915 12.7841 18.7159C13.1085 19.0404 13.5475 19.2244 14.0063 19.2284C14.4651 19.2324 14.9072 19.056 15.2372 18.7372L20.4872 13.4872C20.8153 13.1591 20.9996 12.714 20.9996 12.25C20.9996 11.786 20.8153 11.3409 20.4872 11.0128L15.2372 5.76275C14.9091 5.43468 14.464 5.25037 14 5.25037C13.536 5.25037 13.0909 5.43468 12.7628 5.76275Z" fill="white"/>
</svg>
