<svg width="22" height="26" viewBox="0 0 22 26" fill="none" xmlns="http://www.w3.org/2000/svg">
<path d="M14.1952 15.378C14.0399 15.3272 13.0582 14.8848 13.6716 13.0201H13.6628C15.2618 11.3733 16.4837 8.7234 16.4837 6.11449C16.4837 2.10295 13.8162 0 10.716 0C7.6138 0 4.96094 2.10198 4.96094 6.11449C4.96094 8.73414 6.17602 11.3948 7.78474 13.0377C8.41181 14.6826 7.2905 15.2931 7.05608 15.379C3.80934 16.5531 0 18.6931 0 20.8059V21.598C0 24.4765 5.58118 25.1309 10.7463 25.1309C15.9192 25.1309 21.43 24.4765 21.43 21.598V20.8059C21.43 18.6296 17.6021 16.5062 14.1952 15.378Z" fill="black" fill-opacity="0.48"/>
</svg>
