<svg width="28" height="25" viewBox="0 0 28 25" fill="none" xmlns="http://www.w3.org/2000/svg">
<path fill-rule="evenodd" clip-rule="evenodd" d="M1.75 24.5C2.21413 24.5 2.65925 24.3156 2.98744 23.9874C3.31563 23.6592 3.5 23.2141 3.5 22.75L3.5 1.75C3.5 1.28587 3.31563 0.84075 2.98744 0.512562C2.65925 0.184374 2.21413 0 1.75 0C1.28587 0 0.840752 0.184374 0.512563 0.512562C0.184374 0.84075 0 1.28587 0 1.75L0 22.75C0 23.2141 0.184374 23.6592 0.512563 23.9874C0.840752 24.3156 1.28587 24.5 1.75 24.5ZM15.2372 18.7372C15.5653 18.4091 15.7496 17.964 15.7496 17.5C15.7496 17.036 15.5653 16.5909 15.2372 16.2628L12.9745 14L26.25 14C26.7141 14 27.1593 13.8156 27.4874 13.4874C27.8156 13.1592 28 12.7141 28 12.25C28 11.7859 27.8156 11.3408 27.4874 11.0126C27.1593 10.6844 26.7141 10.5 26.25 10.5L12.9745 10.5L15.2372 8.23725C15.556 7.9072 15.7324 7.46514 15.7284 7.0063C15.7244 6.54745 15.5404 6.10853 15.2159 5.78407C14.8915 5.4596 14.4525 5.27556 13.9937 5.27157C13.5349 5.26758 13.0928 5.44397 12.7628 5.76275L7.51275 11.0128C7.18468 11.3409 7.00037 11.786 7.00037 12.25C7.00037 12.714 7.18468 13.1591 7.51275 13.4872L12.7628 18.7372C13.0909 19.0653 13.536 19.2496 14 19.2496C14.464 19.2496 14.9091 19.0653 15.2372 18.7372Z" fill="#FFA500"/>
</svg>
