<svg width="27" height="33" viewBox="0 0 27 33" fill="none" xmlns="http://www.w3.org/2000/svg">
<path d="M26.4333 24.9843C25.9662 26.0731 25.3891 27.1114 24.7111 28.0829C23.8053 29.3766 23.0614 30.2706 22.4913 30.7682C21.6057 31.5812 20.6544 31.9996 19.6373 32.0232C18.9086 32.0232 18.0281 31.8157 17.0026 31.394C15.9736 30.974 15.029 30.7682 14.1637 30.7682C13.2579 30.7682 12.2864 30.974 11.2456 31.394C10.2066 31.8157 9.36659 32.0367 8.72393 32.0569C7.75067 32.0991 6.77741 31.6706 5.80752 30.7682C5.18848 30.2285 4.41426 29.3007 3.48485 27.9884C2.48966 26.5901 1.67158 24.9624 1.03061 23.112C0.3441 21.1098 0 19.1734 0 17.2977C0 15.1505 0.46386 13.2967 1.39327 11.7449C2.09622 10.5262 3.10119 9.50901 4.31136 8.7914C5.50469 8.07566 6.86695 7.69027 8.25839 7.67477C9.0343 7.67477 10.0514 7.91429 11.3114 8.38658C12.5714 8.85887 13.3811 9.09839 13.7336 9.09839C14.0001 9.09839 14.8958 8.81671 16.4206 8.25839C17.8594 7.74055 19.0739 7.52633 20.0691 7.61067C22.7679 7.82826 24.7937 8.89092 26.1414 10.8071C23.7294 12.2695 22.5368 14.3156 22.5604 16.9418C22.5807 18.9879 23.3245 20.6898 24.7819 22.0409C25.4262 22.6575 26.178 23.1509 27 23.4966C26.8212 24.0144 26.6323 24.5087 26.4333 24.9843V24.9843ZM20.2479 0.642657C20.2479 2.24508 19.6609 3.74293 18.4953 5.12776C17.0852 6.77404 15.3816 7.72706 13.5346 7.57694C13.5104 7.37543 13.4986 7.17264 13.4992 6.9697C13.4992 5.42969 14.1671 3.78341 15.3597 2.43568C15.9534 1.75423 16.7091 1.18579 17.625 0.733742C18.5392 0.288436 19.4028 0.0421691 20.2158 0C20.2378 0.215906 20.2479 0.430125 20.2479 0.642657V0.642657Z" fill="#FFA500"/>
</svg>
