<svg width="48" height="48" viewBox="0 0 48 48" fill="none" xmlns="http://www.w3.org/2000/svg">
<path opacity="0.5" d="M44 20H4V38C4 39.5913 4.63214 41.1174 5.75736 42.2426C6.88258 43.3679 8.4087 44 10 44H38C39.5913 44 41.1174 43.3679 42.2426 42.2426C43.3679 41.1174 44 39.5913 44 38V20ZM14 16C13.4696 16 12.9609 15.7893 12.5858 15.4142C12.2107 15.0391 12 14.5304 12 14V6C12 5.46957 12.2107 4.96086 12.5858 4.58579C12.9609 4.21071 13.4696 4 14 4C14.5304 4 15.0391 4.21071 15.4142 4.58579C15.7893 4.96086 16 5.46957 16 6V14C16 14.5304 15.7893 15.0391 15.4142 15.4142C15.0391 15.7893 14.5304 16 14 16ZM34 16C33.4696 16 32.9609 15.7893 32.5858 15.4142C32.2107 15.0391 32 14.5304 32 14V6C32 5.46957 32.2107 4.96086 32.5858 4.58579C32.9609 4.21071 33.4696 4 34 4C34.5304 4 35.0391 4.21071 35.4142 4.58579C35.7893 4.96086 36 5.46957 36 6V14C36 14.5304 35.7893 15.0391 35.4142 15.4142C35.0391 15.7893 34.5304 16 34 16Z" fill="black"/>
<path d="M38 8H36V14C36 14.5304 35.7893 15.0391 35.4142 15.4142C35.0391 15.7893 34.5304 16 34 16C33.4696 16 32.9609 15.7893 32.5858 15.4142C32.2107 15.0391 32 14.5304 32 14V8H16V14C16 14.5304 15.7893 15.0391 15.4142 15.4142C15.0391 15.7893 14.5304 16 14 16C13.4696 16 12.9609 15.7893 12.5858 15.4142C12.2107 15.0391 12 14.5304 12 14V8H10C8.4087 8 6.88258 8.63214 5.75736 9.75736C4.63214 10.8826 4 12.4087 4 14V20H44V14C44 12.4087 43.3679 10.8826 42.2426 9.75736C41.1174 8.63214 39.5913 8 38 8Z" fill="black"/>
<path d="M15.884 26.4705V33H14.6915V28.9905C14.6915 28.9065 14.693 28.8165 14.696 28.7205C14.702 28.6245 14.711 28.527 14.723 28.428L12.8555 31.9695C12.7535 32.1645 12.596 32.262 12.383 32.262H12.194C12.089 32.262 11.996 32.238 11.915 32.19C11.834 32.139 11.7695 32.0655 11.7215 31.9695L9.845 28.4145C9.854 28.5195 9.8615 28.6215 9.8675 28.7205C9.8735 28.8165 9.8765 28.9065 9.8765 28.9905V33H8.684V26.4705H9.71C9.767 26.4705 9.818 26.472 9.863 26.475C9.908 26.478 9.947 26.487 9.98 26.502C10.016 26.514 10.0475 26.535 10.0745 26.565C10.1045 26.592 10.133 26.631 10.16 26.682L11.987 30.165C12.044 30.27 12.0965 30.378 12.1445 30.489C12.1955 30.6 12.2435 30.714 12.2885 30.831C12.3335 30.711 12.38 30.594 12.428 30.48C12.479 30.366 12.533 30.2565 12.59 30.1515L14.4035 26.682C14.4305 26.631 14.459 26.592 14.489 26.565C14.519 26.535 14.5505 26.514 14.5835 26.502C14.6195 26.487 14.6585 26.478 14.7005 26.475C14.7455 26.472 14.798 26.4705 14.858 26.4705H15.884ZM23.5535 29.733C23.5535 30.21 23.4725 30.6525 23.3105 31.0605C23.1515 31.4685 22.925 31.821 22.631 32.118C22.34 32.415 21.989 32.649 21.578 32.82C21.167 32.988 20.711 33.072 20.21 33.072C19.709 33.072 19.253 32.988 18.842 32.82C18.431 32.649 18.0785 32.415 17.7845 32.118C17.4905 31.821 17.2625 31.4685 17.1005 31.0605C16.9415 30.6525 16.862 30.21 16.862 29.733C16.862 29.256 16.9415 28.815 17.1005 28.41C17.2625 28.002 17.4905 27.6495 17.7845 27.3525C18.0785 27.0555 18.431 26.823 18.842 26.655C19.253 26.484 19.709 26.3985 20.21 26.3985C20.711 26.3985 21.167 26.484 21.578 26.655C21.989 26.823 22.34 27.057 22.631 27.357C22.925 27.654 23.1515 28.0065 23.3105 28.4145C23.4725 28.8195 23.5535 29.259 23.5535 29.733ZM22.172 29.733C22.172 29.391 22.127 29.085 22.037 28.815C21.947 28.542 21.8165 28.311 21.6455 28.122C21.4775 27.93 21.272 27.7845 21.029 27.6855C20.789 27.5835 20.516 27.5325 20.21 27.5325C19.904 27.5325 19.6295 27.5835 19.3865 27.6855C19.1435 27.7845 18.9365 27.93 18.7655 28.122C18.5975 28.311 18.4685 28.542 18.3785 28.815C18.2885 29.085 18.2435 29.391 18.2435 29.733C18.2435 30.078 18.2885 30.387 18.3785 30.66C18.4685 30.93 18.5975 31.1595 18.7655 31.3485C18.9365 31.5375 19.1435 31.683 19.3865 31.785C19.6295 31.884 19.904 31.9335 20.21 31.9335C20.516 31.9335 20.789 31.884 21.029 31.785C21.272 31.683 21.4775 31.5375 21.6455 31.3485C21.8165 31.1595 21.947 30.93 22.037 30.66C22.127 30.387 22.172 30.078 22.172 29.733ZM30.133 26.4705V33H29.4355C29.3305 33 29.242 32.9835 29.17 32.9505C29.098 32.9145 29.0275 32.8545 28.9585 32.7705L25.705 28.6305C25.714 28.7355 25.72 28.839 25.723 28.941C25.729 29.043 25.732 29.1375 25.732 29.2245V33H24.5395V26.4705H25.2505C25.3075 26.4705 25.3555 26.4735 25.3945 26.4795C25.4365 26.4825 25.474 26.493 25.507 26.511C25.54 26.526 25.5715 26.547 25.6015 26.574C25.6315 26.601 25.6645 26.637 25.7005 26.682L28.9765 30.84C28.9645 30.726 28.9555 30.6165 28.9495 30.5115C28.9435 30.4035 28.9405 30.3015 28.9405 30.2055V26.4705H30.133ZM37.6411 32.0865V33H33.9781V32.0865H35.2741V28.5135C35.2741 28.4355 35.2756 28.356 35.2786 28.275C35.2816 28.194 35.2861 28.1115 35.2921 28.0275L34.4371 28.7385C34.3771 28.7835 34.3186 28.812 34.2616 28.824C34.2046 28.836 34.1506 28.8375 34.0996 28.8285C34.0486 28.8165 34.0036 28.7985 33.9646 28.7745C33.9256 28.7475 33.8956 28.7205 33.8746 28.6935L33.4831 28.167L35.4901 26.466H36.5116V32.0865H37.6411Z" fill="white"/>
</svg>
