<svg width="40" height="40" viewBox="0 0 40 40" fill="none" xmlns="http://www.w3.org/2000/svg">
<path d="M21.2927 2.54718C20.8643 2.51555 20.4349 2.49971 20.0054 2.49969V0C20.4967 0.000239539 20.9878 0.018583 21.4777 0.0549931L21.2927 2.54718ZM26.3021 3.67204C25.5008 3.36284 24.6778 3.11303 23.8399 2.92463L24.3873 0.484939C25.3447 0.699912 26.2871 0.984877 27.202 1.33983L26.3021 3.67204ZM29.7267 5.44682C29.3693 5.20847 29.0032 4.98335 28.6293 4.7719L29.8616 2.59718C30.7163 3.08145 31.5342 3.62786 32.3088 4.23197L30.7715 6.20422C30.4326 5.93983 30.0841 5.68803 29.7267 5.44932V5.44682ZM34.3111 9.92126C33.8166 9.21879 33.2711 8.55373 32.6788 7.93151L34.4886 6.20672C35.1635 6.91914 35.7884 7.68154 36.3558 8.48144L34.3111 9.92126ZM36.1708 13.3008C36.0068 12.9045 35.8283 12.5143 35.6359 12.131L37.8681 11.0061C38.3096 11.8837 38.6856 12.7928 38.993 13.7258L36.6183 14.5082C36.484 14.1004 36.3347 13.6977 36.1708 13.3008ZM37.4957 19.5676C37.4755 18.7085 37.3919 17.8521 37.2457 17.0054L39.7079 16.5804C39.8754 17.5453 39.9729 18.5252 39.9979 19.5051L37.4982 19.5676H37.4957ZM37.1682 23.4121C37.2507 22.9871 37.3182 22.5647 37.3707 22.1372L39.8529 22.4447C39.7328 23.42 39.5407 24.385 39.278 25.3318L36.8683 24.6644C36.9832 24.252 37.0832 23.8345 37.1682 23.4121ZM34.7885 29.3588C35.2485 28.6339 35.6534 27.874 36.0034 27.0891L38.2881 28.1015C37.8881 29.0014 37.4257 29.8663 36.9008 30.6962L34.7885 29.3588ZM32.3788 32.371C32.6838 32.066 32.9762 31.751 33.2537 31.4261L35.1485 33.0584C34.8276 33.4304 34.4933 33.7906 34.1461 34.1382L32.3788 32.371Z" fill="black"/>
<path d="M20.0053 2.49969C17.1279 2.4999 14.2949 3.20972 11.7573 4.56628C9.21968 5.92284 7.05579 7.88427 5.45727 10.2768C3.85875 12.6694 2.87494 15.4193 2.59297 18.2829C2.31101 21.1465 2.73959 24.0354 3.84077 26.6938C4.94195 29.3522 6.68173 31.698 8.90601 33.5234C11.1303 35.3489 13.7704 36.5976 16.5926 37.159C19.4147 37.7204 22.3317 37.5772 25.0853 36.742C27.8389 35.9069 30.344 34.4055 32.3788 32.371L34.146 34.1382C31.8207 36.4649 28.9573 38.1821 25.8097 39.1376C22.662 40.0931 19.3273 40.2575 16.101 39.6163C12.8746 38.975 9.85622 37.5478 7.31327 35.4611C4.77031 33.3745 2.7813 30.6928 1.52245 27.6538C0.26361 24.6147 -0.226196 21.312 0.0964327 18.0384C0.419062 14.7648 1.54417 11.6213 3.37206 8.88643C5.19995 6.15157 7.67419 3.90979 10.5756 2.35971C13.4769 0.809637 16.7158 -0.000871721 20.0053 7.03558e-07V2.49969Z" fill="black"/>
<path d="M18.7577 7.5C19.0891 7.5 19.407 7.63168 19.6414 7.86607C19.8758 8.10046 20.0075 8.41836 20.0075 8.74984V21.7732L28.1265 26.4126C28.4059 26.5812 28.6084 26.8524 28.6905 27.1683C28.7726 27.4841 28.728 27.8196 28.5661 28.1029C28.4041 28.3863 28.1378 28.5951 27.824 28.6847C27.5102 28.7742 27.1737 28.7375 26.8866 28.5824L18.1377 23.583C17.9464 23.4737 17.7874 23.3158 17.6768 23.1253C17.5662 22.9348 17.5079 22.7184 17.5078 22.4981V8.74984C17.5078 8.41836 17.6395 8.10046 17.8739 7.86607C18.1083 7.63168 18.4262 7.5 18.7577 7.5Z" fill="black"/>
</svg>
