<svg width="28" height="32" viewBox="0 0 28 32" fill="none" xmlns="http://www.w3.org/2000/svg">
<path d="M19.9908 9.11927V7.46789C19.9908 7.31651 19.867 7.19266 19.7156 7.19266H6.50459C6.35321 7.19266 6.22936 7.31651 6.22936 7.46789V9.11927C6.22936 9.27064 6.35321 9.3945 6.50459 9.3945H19.7156C19.867 9.3945 19.9908 9.27064 19.9908 9.11927ZM6.50459 12.1468C6.35321 12.1468 6.22936 12.2706 6.22936 12.422V14.0734C6.22936 14.2248 6.35321 14.3486 6.50459 14.3486H12.8349C12.9862 14.3486 13.1101 14.2248 13.1101 14.0734V12.422C13.1101 12.2706 12.9862 12.1468 12.8349 12.1468H6.50459ZM19.4404 16.1376C15.336 16.1376 12.0092 19.4644 12.0092 23.5688C12.0092 27.6732 15.336 31 19.4404 31C23.5447 31 26.8716 27.6732 26.8716 23.5688C26.8716 19.4644 23.5447 16.1376 19.4404 16.1376ZM23.1388 27.2672C22.1514 28.2546 20.8372 28.7982 19.4404 28.7982C18.0436 28.7982 16.7294 28.2546 15.742 27.2672C14.7546 26.2798 14.211 24.9656 14.211 23.5688C14.211 22.172 14.7546 20.8578 15.742 19.8704C16.7294 18.883 18.0436 18.3394 19.4404 18.3394C20.8372 18.3394 22.1514 18.883 23.1388 19.8704C24.1261 20.8578 24.6697 22.172 24.6697 23.5688C24.6697 24.9656 24.1261 26.2798 23.1388 27.2672ZM22.5023 20.9541H20.9782C20.8888 20.9541 20.8062 20.9954 20.7546 21.0677L18.57 24.0883L17.7752 22.9908C17.7498 22.9554 17.7162 22.9266 17.6773 22.9068C17.6383 22.887 17.5952 22.8769 17.5516 22.8773H16.0344C15.8108 22.8773 15.68 23.1319 15.8108 23.3142L18.3498 26.8268C18.4599 26.9782 18.6835 26.9782 18.7936 26.8268L22.7225 21.3911C22.8567 21.2087 22.7259 20.9541 22.5023 20.9541ZM11.4587 27.6972H3.47706V3.47706H22.7431V15.3119C22.7431 15.4633 22.867 15.5872 23.0184 15.5872H24.945C25.0963 15.5872 25.2202 15.4633 25.2202 15.3119V2.10092C25.2202 1.49197 24.7282 1 24.1193 1H2.10092C1.49197 1 1 1.49197 1 2.10092V29.0734C1 29.6823 1.49197 30.1743 2.10092 30.1743H11.4587C11.6101 30.1743 11.7339 30.0505 11.7339 29.8991V27.9725C11.7339 27.8211 11.6101 27.6972 11.4587 27.6972Z" fill="#34A853" stroke="#34A853"/>
</svg>
