<svg width="27" height="27" viewBox="0 0 27 27" fill="none" xmlns="http://www.w3.org/2000/svg">
<path d="M13.5 0C6.04487 0 0 6.04487 0 13.5C0 20.9551 6.04487 27 13.5 27C20.9551 27 27 20.9551 27 13.5C27 6.04487 20.9551 0 13.5 0ZM18.5324 19.0929C17.3089 20.2199 15.6395 20.8828 13.6477 20.8828C10.7638 20.8828 8.26875 19.2285 7.05435 16.8177C6.55413 15.8203 6.26786 14.6933 6.26786 13.5C6.26786 12.3067 6.55413 11.1797 7.05435 10.1823C8.26875 7.76853 10.7638 6.11417 13.6477 6.11417C15.6365 6.11417 17.3059 6.84643 18.5866 8.03672L16.4712 10.1551C15.7058 9.42288 14.7325 9.05223 13.6507 9.05223C11.7281 9.05223 10.1009 10.351 9.51931 12.0958C9.37165 12.5387 9.28728 13.0118 9.28728 13.5C9.28728 13.9882 9.37165 14.4613 9.51931 14.9042C10.1009 16.649 11.7281 17.9478 13.6477 17.9478C14.6421 17.9478 15.4858 17.6856 16.1458 17.2426C16.9292 16.7183 17.4475 15.9378 17.6193 15.0127H13.6477V12.156H20.5996C20.6869 12.6412 20.7321 13.1444 20.7321 13.6657C20.7321 15.9167 19.9276 17.8061 18.5324 19.0929Z" fill="#FFA500"/>
</svg>
