<svg width="75" height="75" viewBox="0 0 75 75" fill="none" xmlns="http://www.w3.org/2000/svg">
<path d="M69.2139 30.1758H50.4639C50.1416 30.1758 49.8779 30.4395 49.8779 30.7617V34.2773C49.8779 34.5996 50.1416 34.8633 50.4639 34.8633H69.2139C69.5361 34.8633 69.7998 34.5996 69.7998 34.2773V30.7617C69.7998 30.4395 69.5361 30.1758 69.2139 30.1758ZM59.3994 40.1367H50.4639C50.1416 40.1367 49.8779 40.4004 49.8779 40.7227V44.2383C49.8779 44.5605 50.1416 44.8242 50.4639 44.8242H59.3994C59.7217 44.8242 59.9853 44.5605 59.9853 44.2383V40.7227C59.9853 40.4004 59.7217 40.1367 59.3994 40.1367ZM34.9585 23.6206H31.7871C31.333 23.6206 30.9668 23.9868 30.9668 24.4409V42.605C30.9668 42.8687 31.0913 43.1104 31.3037 43.2642L42.2095 51.2183C42.5757 51.4819 43.0884 51.4087 43.3521 51.0425L45.2344 48.4717V48.4644C45.498 48.0981 45.4175 47.5854 45.0513 47.3218L35.7715 40.6128V24.4409C35.7788 23.9868 35.4053 23.6206 34.9585 23.6206V23.6206Z" fill="white"/>
<path d="M58.9454 49.358H54.712C54.3018 49.358 53.9136 49.5704 53.6939 49.9219C52.7637 51.3941 51.6797 52.7564 50.4346 54.0015C48.2886 56.1475 45.7911 57.8321 43.0152 59.0039C40.1368 60.2198 37.0826 60.835 33.9332 60.835C30.7764 60.835 27.7222 60.2198 24.8511 59.0039C22.0752 57.8321 19.5777 56.1475 17.4317 54.0015C15.2857 51.8555 13.6011 49.3579 12.4292 46.5821C11.2134 43.711 10.5982 40.6568 10.5982 37.5C10.5982 34.3433 11.2134 31.2964 12.4292 28.418C13.6011 25.6421 15.2857 23.1446 17.4317 20.9986C19.5777 18.8526 22.0752 17.168 24.8511 15.9961C27.7222 14.7803 30.7837 14.1651 33.9332 14.1651C37.0899 14.1651 40.1441 14.7803 43.0152 15.9961C45.7911 17.168 48.2886 18.8526 50.4346 20.9986C51.6797 22.2437 52.7637 23.606 53.6939 25.0782C53.9136 25.4297 54.3018 25.6421 54.712 25.6421H58.9454C59.4507 25.6421 59.773 25.1148 59.5459 24.668C54.7706 15.1685 45.0879 8.99418 34.2774 8.86967C18.4498 8.67191 5.30278 21.6285 5.27349 37.4414C5.24419 53.2837 18.0835 66.1377 33.9258 66.1377C44.8755 66.1377 54.7193 59.9414 59.5459 50.3321C59.773 49.8853 59.4434 49.358 58.9454 49.358V49.358Z" fill="white"/>
</svg>
